inDegrees=no
num_controls=7
num_derivatives=13
num_iterations=46
num_multipliers=7
num_parameters=0
num_slacks=7
num_states=26
objective=0.431613
objective_accelerations=0.055237
objective_balance=0.006825
objective_effort=0.033693
objective_height=0.334765
objective_ligament=0.001093
solver_duration=596.248866
status=Solve_Succeeded
success=true
DataType=double
version=3
OpenSimVersion=4.5
endheader
time	/jointset/ground_pelvis/pelvis_tilt/value	/jointset/ground_pelvis/pelvis_tx/value	/jointset/ground_pelvis/pelvis_ty/value	/jointset/hip_l/hip_flexion_l/value	/jointset/hip_l/hip_adduction_l/value	/jointset/hip_l/hip_rotation_l/value	/jointset/back/lumbar_extension/value	/jointset/patellofemoral_l/patellar_flexion_l/value	/jointset/knee_l/knee_flexion_l/value	/jointset/knee_l/knee_adduction_l/value	/jointset/knee_l/knee_rotation_l/value	/jointset/ankle_l/ankle_angle_l/value	/jointset/subtalar_l/subtalar_angle_l/value	/jointset/ground_pelvis/pelvis_tilt/speed	/jointset/ground_pelvis/pelvis_tx/speed	/jointset/ground_pelvis/pelvis_ty/speed	/jointset/hip_l/hip_flexion_l/speed	/jointset/hip_l/hip_adduction_l/speed	/jointset/hip_l/hip_rotation_l/speed	/jointset/back/lumbar_extension/speed	/jointset/patellofemoral_l/patellar_flexion_l/speed	/jointset/knee_l/knee_flexion_l/speed	/jointset/knee_l/knee_adduction_l/speed	/jointset/knee_l/knee_rotation_l/speed	/jointset/ankle_l/ankle_angle_l/speed	/jointset/subtalar_l/subtalar_angle_l/speed	/forceset/tau_hip_flexion_l	/forceset/tau_hip_adduction_l	/forceset/tau_hip_rotation_l	/forceset/tau_knee_flexion_l	/forceset/tau_ankle_angle_l	/forceset/tau_subtalar_angle_l	/forceset/tau_lumbar_extension	lambda_cid13_p0	lambda_cid13_p1	lambda_cid13_p2	lambda_cid13_p3	lambda_cid13_p4	lambda_cid13_p5	lambda_cid14_p0	/jointset/ground_pelvis/pelvis_tilt/accel	/jointset/ground_pelvis/pelvis_tx/accel	/jointset/ground_pelvis/pelvis_ty/accel	/jointset/hip_l/hip_flexion_l/accel	/jointset/hip_l/hip_adduction_l/accel	/jointset/hip_l/hip_rotation_l/accel	/jointset/back/lumbar_extension/accel	/jointset/patellofemoral_l/patellar_flexion_l/accel	/jointset/knee_l/knee_flexion_l/accel	/jointset/knee_l/knee_adduction_l/accel	/jointset/knee_l/knee_rotation_l/accel	/jointset/ankle_l/ankle_angle_l/accel	/jointset/subtalar_l/subtalar_angle_l/accel	gamma_cid13_p0	gamma_cid13_p1	gamma_cid13_p2	gamma_cid13_p3	gamma_cid13_p4	gamma_cid13_p5	gamma_cid14_p0
1	-0.4766005790850351	-0.06083392954392115	0.5636491329549825	1.882034808062542	-0.2640860405931523	0.2492716347223754	-0.4363231787450212	1.494298752059058	1.494298752059132	-0.1724053923902154	0.1745139106596034	0.3089937656966693	0.05893134004533881	-0.01130648458786034	-0.0007148920592626178	-0.003603159809202935	0.01879232148121121	0.0009452333289267454	0.001755981897794429	0.0006823540636804626	0.006002994575936238	0.00600299457593669	0.0008598553497009821	-0.0001594404235445899	-0.001258564372837618	0.0008312295847171897	-0.3519528596278442	0.0372098275240806	-0.008601184369188379	-0.3797000888321729	0.07025458632104926	-0.01737339087150918	0.3091614773272506	-26.0179446826564	17.2260049079643	-9.002912355894154	14.44676116654504	-741.0932339416313	-23.56216739175133	-0.03804144367618179	1.084290844758981	0.01277987949431573	2.028154778034576	-6.336746483893561	-0.7404029446530328	-2.226601309182803	-0.02064079655594018	-5.91965652245467	-5.919656522454659	-0.1456660098339071	0.02929823789338007	-0.9650298871360303	-1.217482719206772	2.520273732597335e-09	-4.980045556911702e-09	1.818093588229955e-09	-7.683719213497756e-09	2.02647106057919e-09	-6.554872671244508e-09	-7.46745205378803e-10
1.01	-0.476659709679572	-0.06084050452690593	0.563714376878175	1.881906514190694	-0.2641127776454615	0.249175616058434	-0.4363171369369033	1.494063166131409	1.494063166131541	-0.1724006753820337	0.1745128331435332	0.3089330925081886	0.05887999166882346	-0.0005017519207944534	-0.0006033866603423089	0.0166463576646104	-0.04444686106712886	-0.006289553219694324	-0.02095772426024078	0.0004986830738104176	-0.05310959320613685	-0.05310959320613628	8.659182505249293e-05	-5.22285901318062e-05	-0.01088858034174942	-0.01109920765949358	-0.3518701551653898	0.03730690595749838	-0.008628646485903014	-0.3793626749201018	0.06993944216545271	-0.01733591802585644	0.309040758847792	-26.10028360352459	17.21748470174445	-8.993943532579905	14.56554470978594	-740.784220906093	-23.53249503486797	-0.03805767346585757	1.081247181395397	0.009843993626410112	2.022510223623983	-6.316868801347604	-0.714561674590763	-2.29346426496741	-0.02132892426626651	-5.905469738182628	-5.905469738182639	-0.04270464773370528	0.001994341251233319	-0.9638618994171991	-1.180575890951778	6.808792350955235e-10	-4.788806657739126e-09	5.719803315397514e-08	2.111394181811415e-09	-9.834710715210712e-09	4.780133676984951e-08	-1.056545511230989e-08
1.02	-0.4766102564067082	-0.06084606283119511	0.5639819479744211	1.881145955561149	-0.2642117715961834	0.2488525185337367	-0.4363137515734966	1.493236772359519	1.493236772359702	-0.1724036006339057	0.1745129400828343	0.3087757442704916	0.05870938858708124	0.01041028889491679	-0.0005115563201423192	0.03686227480121961	-0.1076606300571968	-0.01350614635327518	-0.04365979025243248	0.0001510651214084067	-0.1121585742721713	-0.1121585742721707	-0.0006685966577292774	7.745065072567092e-05	-0.02059357421660661	-0.02301971146065104	-0.351787450702902	0.03740398439088844	-0.008656108602450958	-0.379025261008036	0.06962429800984424	-0.01729844518024696	0.3089200403683688	-26.18781477436924	17.2093979884536	-8.984500664591918	14.72207153875724	-740.5654482162226	-23.44553518099643	-0.03806676392254307	1.105752474488138	0.008844867750202975	2.021434710593736	-6.331663772239116	-0.7367642616449808	-2.224273276014091	-0.05343018906274002	-5.90693517924693	-5.906935179246942	-0.1420510014605595	0.03379171938230752	-0.9800254683252048	-1.215496030596126	-3.508266808193247e-10	-2.099782292763514e-09	1.204488267556551e-07	1.179032393571302e-08	-2.219083288803412e-08	1.099876163549915e-07	-2.150853176701434e-08
1.03	-0.4764511535868359	-0.0608507351296578	0.5644514525072016	1.879753487865471	-0.2643827199366789	0.2483027452922927	-0.4363142699170116	1.491820283866414	1.49182028386644	-0.1724141222253515	0.1745143398123558	0.3085209529937572	0.05841981571093523	0.02142768321411967	-0.0004196359840945514	0.05702742334157394	-0.1708191805015767	-0.02066857766841767	-0.0662672837377309	-0.0002432699308329444	-0.1711211457260703	-0.1711211457260688	-0.001443417162940656	0.0001953268639970419	-0.0303789365734434	-0.03487484638310781	-0.351809813925587	0.03756233045627957	-0.008747863058758224	-0.3783688960062581	0.06920211708074817	-0.01715662854806617	0.3089551246244375	-26.29165915862072	17.14345983443869	-8.948254041016119	14.79947404306998	-740.2366909313539	-23.39949678900751	-0.03810336331822162	1.10234587066687	0.009860076960716559	2.012366678388754	-6.305890530453152	-0.7037683369245091	-2.274874543790278	-0.03071558080838494	-5.888214776014506	-5.888214776014399	-0.04636655413377858	-0.0003336644843664329	-0.9799248531255951	-1.167542151261339	-1.374290876513893e-09	6.147296790060203e-10	1.837799351944364e-07	2.146806814225333e-08	-3.455200547307216e-08	1.722537946150728e-07	-3.246308155179812e-08
